<?xml version="1.0" standalone="no"?>
<!DOCTYPE svg PUBLIC "-//W3C//DTD SVG 20010904//EN"
 "http://www.w3.org/TR/2001/REC-SVG-20010904/DTD/svg10.dtd">
<svg version="1.0" xmlns="http://www.w3.org/2000/svg"
 width="401.000000pt" height="210.000000pt" viewBox="0 0 401.000000 210.000000"
 preserveAspectRatio="xMidYMid meet">

<g transform="translate(0.000000,210.000000) scale(0.100000,-0.100000)"
fill="#000000" stroke="none">
<path d="M2200 1863 c-50 -9 -44 -23 11 -23 29 0 71 -5 93 -11 50 -14 118 -82
134 -135 8 -29 12 -147 12 -409 l0 -368 -20 18 c-42 38 -355 407 -355 418 0 7
4 112 9 235 7 197 6 225 -8 247 -20 31 -65 33 -91 5 -16 -17 -17 -37 -13 -205
2 -102 2 -185 0 -185 -2 0 -11 9 -20 20 -17 20 -46 25 -110 22 l-32 -2 2 -437
c2 -284 7 -438 13 -438 6 0 12 128 15 354 l5 355 67 -76 68 -75 5 -139 c3 -76
10 -321 16 -544 6 -223 14 -409 18 -413 12 -13 19 106 33 561 6 232 15 422 20
422 4 0 93 -101 198 -225 106 -124 196 -223 201 -219 5 3 9 219 9 518 0 563
-1 577 -60 648 -47 57 -146 93 -220 81z m-144 -96 c-15 -119 -19 -137 -31
-137 -7 0 -15 21 -19 53 -14 123 -3 167 37 146 17 -10 18 -18 13 -62z"/>
<path d="M294 1487 c-2 -7 -3 -205 -2 -442 l3 -430 183 2 c100 1 205 6 233 12
223 48 374 268 339 494 -22 148 -102 257 -233 322 -58 28 -90 37 -167 44 -141
14 -350 13 -356 -2z m426 -44 c100 -44 147 -147 157 -338 12 -231 -49 -393
-166 -443 -21 -8 -79 -17 -138 -20 l-103 -5 0 418 0 418 103 -5 c72 -3 115
-10 147 -25z"/>
<path d="M1144 1486 c-2 -6 -3 -204 -2 -441 l3 -430 285 3 c177 1 286 6 288
12 2 6 -69 10 -197 10 l-201 0 0 200 0 199 143 3 c86 2 142 7 142 13 0 6 -56
11 -142 13 l-143 3 0 199 0 200 201 0 c121 0 199 4 197 9 -4 14 -569 20 -574
7z"/>
<path d="M2585 1488 c-3 -7 -4 -206 -3 -443 l3 -430 85 0 85 0 0 440 0 440
-83 3 c-60 2 -84 -1 -87 -10z"/>
<path d="M2865 1488 c-10 -26 0 -873 10 -873 6 0 12 140 15 390 5 368 6 388
21 355 24 -52 257 -573 295 -660 18 -41 39 -76 47 -78 9 -2 28 30 56 95 23 54
97 224 164 378 l122 280 3 -377 c3 -430 -9 -388 105 -386 41 1 71 6 78 14 7 9
8 142 2 441 l-8 428 -77 3 c-71 3 -78 1 -89 -20 -7 -13 -70 -156 -140 -318
-70 -162 -131 -296 -136 -297 -4 -2 -29 46 -55 105 -26 59 -86 197 -134 307
-48 110 -91 206 -97 213 -6 8 -38 12 -94 12 -58 0 -85 -4 -88 -12z"/>
</g>
</svg>
